<?xml version="1.0" encoding="UTF-8" standalone="no"?>
<!-- Created with Inkscape (http://www.inkscape.org/) -->

<svg
   width="100mm"
   height="100mm"
   viewBox="0 0 100 100"
   version="1.1"
   id="svg5"
   inkscape:version="1.1.2 (0a00cf5339, 2022-02-04)"
   sodipodi:docname="nao_logo.svg"
   inkscape:export-filename="/home/emile/Pictures/app logos/ucodelab/ucodelab_32.png"
   inkscape:export-xdpi="8.1280003"
   inkscape:export-ydpi="8.1280003"
   xmlns:inkscape="http://www.inkscape.org/namespaces/inkscape"
   xmlns:sodipodi="http://sodipodi.sourceforge.net/DTD/sodipodi-0.dtd"
   xmlns="http://www.w3.org/2000/svg"
   xmlns:svg="http://www.w3.org/2000/svg">
  <sodipodi:namedview
     id="namedview7"
     pagecolor="#ffffff"
     bordercolor="#666666"
     borderopacity="1.0"
     inkscape:pageshadow="2"
     inkscape:pageopacity="0.0"
     inkscape:pagecheckerboard="0"
     inkscape:document-units="mm"
     showgrid="false"
     inkscape:zoom="4.074977"
     inkscape:cx="154.6021"
     inkscape:cy="168.22181"
     inkscape:window-width="925"
     inkscape:window-height="1016"
     inkscape:window-x="995"
     inkscape:window-y="27"
     inkscape:window-maximized="0"
     inkscape:current-layer="layer1" />
  <defs
     id="defs2" />
  <g
     inkscape:groupmode="layer"
     id="layer3"
     inkscape:label="book">
    <path
       style="fill:none;stroke:#7d3ea2;stroke-width:4.86458;stroke-linecap:butt;stroke-linejoin:miter;stroke-miterlimit:4;stroke-dasharray:none;stroke-opacity:1"
       d="M 4.1725823,32.651048 V 78.264637 L 42.767003,90.78658 h 13.7252 L 96.754605,77.651468 V 33.009296"
       id="path6866"
       sodipodi:nodetypes="cccccc" />
    <path
       style="fill:#55b0b1;fill-opacity:1;stroke:none;stroke-width:0.259243px;stroke-linecap:butt;stroke-linejoin:miter;stroke-opacity:1"
       d="M 49.385004,83.760589 C 38.054599,76.744248 26.848051,73.279206 13.067198,73.046308 L 12.922782,29.411065 C 26.316295,32.098789 37.773416,36.212338 49.385004,44.120431 62.364801,36.664075 75.092255,31.75273 88.611171,30.035498 l 0.04574,43.01081 C 75.550565,72.43535 62.885078,75.530078 49.385004,83.760589"
       id="path7101"
       sodipodi:nodetypes="ccccccc" />
    <path
       style="fill:#945cc1;fill-opacity:1;stroke:none;stroke-width:0.259243px;stroke-linecap:butt;stroke-linejoin:miter;stroke-opacity:1"
       d="M 49.385004,83.760589 C 38.054599,76.744248 26.848051,73.279206 13.067198,73.046308 L 12.922782,29.411065 C 26.316295,32.098789 37.773416,36.212338 49.385004,44.120431 62.364801,36.664075 75.092255,31.75273 88.611171,30.035498 l 0.04574,43.01081 C 75.550565,72.43535 62.885078,75.530078 49.385004,83.760589"
       id="path1496"
       sodipodi:nodetypes="ccccccc" />
    <path
       style="fill:#7d3ea2;fill-opacity:1;stroke:none;stroke-width:0.259244px;stroke-linecap:butt;stroke-linejoin:miter;stroke-opacity:1"
       d="M 49.385004,83.760589 V 44.120431 C 62.364831,36.664075 75.092314,31.75273 88.61126,30.035498 L 88.657,73.046308 C 75.550628,72.43535 62.885113,75.530078 49.385007,83.760589"
       id="path1578"
       sodipodi:nodetypes="ccccc" />
  </g>
  <g
     inkscape:groupmode="layer"
     id="layer1"
     inkscape:label="thingsinbook">
    <path
       style="fill:none;stroke:#ffffff;stroke-width:2;stroke-linecap:butt;stroke-linejoin:miter;stroke-opacity:1;font-variation-settings:normal;opacity:1;vector-effect:none;fill-opacity:1;stroke-miterlimit:4;stroke-dasharray:none;stroke-dashoffset:0;-inkscape-stroke:none;stop-color:#000000;stop-opacity:1"
       d="M 67.668745,67.593476 V 45.561662"
       id="path3796" />
    <path
       style="font-variation-settings:normal;opacity:1;vector-effect:none;fill:none;fill-opacity:1;stroke:#ffffff;stroke-width:2;stroke-linecap:butt;stroke-linejoin:miter;stroke-miterlimit:4;stroke-dasharray:none;stroke-dashoffset:0;stroke-opacity:1;-inkscape-stroke:none;stop-color:#000000;stop-opacity:1"
       d="m 67.729065,56.761808 c -3.852973,1.176855 -6.948273,2.253002 -10.741451,4.406257 V 48.39304"
       id="path3798"
       sodipodi:nodetypes="ccc" />
    <circle
       style="display:inline;fill:none;fill-opacity:1;stroke:#ffffff;stroke-width:2;stroke-miterlimit:4;stroke-dasharray:none"
       id="path1933"
       cx="25.697443"
       cy="61.430061"
       r="6.5502462" />
    <circle
       style="display:inline;fill:none;fill-opacity:1;stroke:#ffffff;stroke-width:2;stroke-miterlimit:4;stroke-dasharray:none"
       id="circle2059"
       cx="78.349602"
       cy="53.748421"
       r="4.2014084" />
    <circle
       style="display:inline;fill:#ffffff;fill-opacity:1;stroke:none;stroke-width:1.55058;stroke-miterlimit:4;stroke-dasharray:none"
       id="circle2061"
       cx="57.806389"
       cy="70.631775"
       r="3.8111632" />
    <path
       style="display:inline;font-variation-settings:normal;opacity:1;vector-effect:none;fill:none;fill-opacity:1;stroke:#ffffff;stroke-width:2;stroke-linecap:butt;stroke-linejoin:miter;stroke-miterlimit:4;stroke-dasharray:none;stroke-dashoffset:0;stroke-opacity:1;-inkscape-stroke:none;stop-color:#000000;stop-opacity:1"
       d="m 31.975986,63.476756 c 4.478555,1.269871 8.164292,3.150286 12.320528,5.779983 l 0.325991,-16.855555"
       id="path2132"
       sodipodi:nodetypes="ccc" />
    <path
       style="display:inline;fill:none;stroke:#ffffff;stroke-width:2;stroke-linecap:butt;stroke-linejoin:miter;stroke-miterlimit:4;stroke-dasharray:none;stroke-opacity:1"
       d="m 59.435041,70.207962 c 7.14663,-2.761789 10.997679,-3.861103 19.162932,-4.47497 v -7.907715"
       id="path2186"
       sodipodi:nodetypes="ccc" />
  </g>
  <g
     inkscape:label="UglyGrey copy"
     inkscape:groupmode="layer"
     id="g6605"
     style="display:inline">
    <g
       id="g958"
       transform="matrix(1.1276798,0,0,1.1276798,-6.3369853,-10.698343)">
      <path
         id="path6603"
         style="fill:#ffffff;stroke:#4b4b4a;stroke-width:1.72753;stroke-linecap:butt;stroke-linejoin:miter;stroke-miterlimit:4;stroke-dasharray:none;stroke-opacity:1"
         d="m 49.67416,60.798082 c 3.78832,-0.373204 4.053986,-0.571905 7.654488,-1.806754 3.600501,-1.234849 6.945702,-5.334023 8.993735,-6.86702 2.048033,-1.532999 10.015279,-4.15786 10.015279,-4.15786 V 29.854356 c 0,0 -5.060875,-2.871239 -6.899307,-4.438429 -1.838434,-1.567191 -4.632432,-5.954004 -7.932798,-7.986395 -3.094095,-1.905365 -7.200735,-3.679993 -11.062656,-3.662583 h -1.622075 c -3.86192,-0.01741 -7.968561,1.757218 -11.062653,3.662583 -3.300366,2.032391 -6.094367,6.419204 -7.932799,7.986395 -1.838432,1.56719 -6.899307,4.438429 -6.899307,4.438429 v 18.112092 c 0,0 7.967568,2.624861 10.015601,4.15786 2.048035,1.532997 5.393234,5.632171 8.993735,6.86702 3.600501,1.234849 3.865845,1.43355 7.654166,1.806754 z"
         sodipodi:nodetypes="cssccssccssccsscc" />
      <path
         id="path6599"
         style="fill:#808080;fill-opacity:1;stroke-width:5.09362;stroke-miterlimit:4;stroke-dasharray:none"
         d="m 50.018657,14.161168 a 17.60229,8.6895677 0 0 0 -7.043628,0.726446 c -1.886312,0.678698 -3.677109,1.59373 -5.216856,2.541918 -2.006304,1.235498 -3.789357,3.301861 -5.320497,5.115154 a 17.60229,8.6895677 0 0 0 -0.02131,0.306077 17.60229,8.6895677 0 0 0 17.602289,8.689595 17.60229,8.6895677 0 0 0 17.562255,-8.108114 c -1.670751,-1.963955 -3.735488,-4.561803 -6.075356,-6.002712 -1.816301,-1.11849 -3.984406,-2.181167 -6.244215,-2.8735 a 17.60229,8.6895677 0 0 0 -5.242685,-0.394864 z" />
      <circle
         style="fill:#945cc1;fill-opacity:1;stroke-width:1.69419;stroke-miterlimit:4;stroke-dasharray:none"
         id="circle6593"
         cx="39.280632"
         cy="38.747543"
         r="3.7486942" />
      <circle
         style="fill:#945cc1;fill-opacity:1;stroke-width:1.69419;stroke-miterlimit:4;stroke-dasharray:none"
         id="circle6595"
         cx="61.037411"
         cy="38.747543"
         r="3.7486942" />
      <path
         style="opacity:1;fill:#4b4b4a;fill-opacity:1;stroke:none;stroke-width:2.73974;stroke-miterlimit:4;stroke-dasharray:none"
         id="path6597"
         sodipodi:type="arc"
         sodipodi:cx="50.030441"
         sodipodi:cy="49.773113"
         sodipodi:rx="3.6435118"
         sodipodi:ry="1.9707118"
         sodipodi:start="0"
         sodipodi:end="3.145037"
         sodipodi:open="true"
         sodipodi:arc-type="arc"
         d="m 53.673953,49.773113 a 3.6435118,1.9707118 0 0 1 -1.82538,1.707817 3.6435118,1.9707118 0 0 1 -3.647128,-0.0034 3.6435118,1.9707118 0 0 1 -1.814494,-1.711208" />
      <path
         id="path6601"
         style="color:#000000;fill:#ffffff;stroke-width:0.624783;-inkscape-stroke:none"
         d="m 46.53042,14.336483 a 17.60229,8.6895675 0 0 0 -1.727973,0.218903 v 6.113776 c 0,2.941389 2.395895,5.336317 5.337284,5.336317 h 0.03906 c 2.94139,0 5.336316,-2.394928 5.336316,-5.336317 v -6.029831 c -0.0848,-0.0271 -0.168699,-0.05724 -0.253773,-0.0833 A 17.60229,8.6895675 0 0 0 53.78714,14.368447 v 6.300715 c 0,2.014225 -1.594117,3.608342 -3.608341,3.608342 h -0.03906 c -2.014223,0 -3.609311,-1.594117 -3.609311,-3.608342 z" />
      <circle
         style="fill:#4b4b4a;fill-opacity:1;stroke-width:1.20737;stroke-miterlimit:4;stroke-dasharray:none"
         id="circle6679"
         cx="39.280632"
         cy="38.747543"
         r="2.6715021" />
      <circle
         style="fill:#4b4b4a;fill-opacity:1;stroke-width:1.20737;stroke-miterlimit:4;stroke-dasharray:none"
         id="circle6699"
         cx="61.037411"
         cy="38.747543"
         r="2.6715021" />
      <path
         id="path895"
         style="fill:none;stroke:#4b4b4a;stroke-width:1.72753;stroke-linecap:butt;stroke-linejoin:miter;stroke-miterlimit:4;stroke-dasharray:none;stroke-opacity:1"
         d="m 49.67416,60.798082 c 3.78832,-0.373204 4.053986,-0.571905 7.654488,-1.806754 3.600501,-1.234849 6.945702,-5.334023 8.993735,-6.86702 2.048033,-1.532999 10.015279,-4.15786 10.015279,-4.15786 V 29.854356 c 0,0 -5.060875,-2.871239 -6.899307,-4.438429 -1.838434,-1.567191 -4.632432,-5.954004 -7.932798,-7.986395 -3.094095,-1.905365 -7.200735,-3.679993 -11.062656,-3.662583 h -1.622075 c -3.86192,-0.01741 -7.968561,1.757218 -11.062653,3.662583 -3.300366,2.032391 -6.094367,6.419204 -7.932799,7.986395 -1.838432,1.56719 -6.899307,4.438429 -6.899307,4.438429 v 18.112092 c 0,0 7.967568,2.624861 10.015601,4.15786 2.048035,1.532997 5.393234,5.632171 8.993735,6.86702 3.600501,1.234849 3.865845,1.43355 7.654166,1.806754 z"
         sodipodi:nodetypes="cssccssccssccsscc" />
    </g>
  </g>
</svg>
