<?xml version="1.0" encoding="UTF-8" standalone="no"?>
<!-- Created with Inkscape (http://www.inkscape.org/) -->

<svg
   width="100mm"
   height="100mm"
   viewBox="0 0 100 100"
   version="1.1"
   id="svg5"
   inkscape:version="1.1.2 (0a00cf5339, 2022-02-04)"
   sodipodi:docname="pepper_logo.svg"
   inkscape:export-filename="/home/emile/Pictures/app logos/ucodelab/ucodelab_32.png"
   inkscape:export-xdpi="8.1280003"
   inkscape:export-ydpi="8.1280003"
   xmlns:inkscape="http://www.inkscape.org/namespaces/inkscape"
   xmlns:sodipodi="http://sodipodi.sourceforge.net/DTD/sodipodi-0.dtd"
   xmlns="http://www.w3.org/2000/svg"
   xmlns:svg="http://www.w3.org/2000/svg">
  <sodipodi:namedview
     id="namedview7"
     pagecolor="#ffffff"
     bordercolor="#666666"
     borderopacity="1.0"
     inkscape:pageshadow="2"
     inkscape:pageopacity="0.0"
     inkscape:pagecheckerboard="0"
     inkscape:document-units="mm"
     showgrid="false"
     inkscape:zoom="0.98520764"
     inkscape:cx="132.96689"
     inkscape:cy="248.17104"
     inkscape:window-width="925"
     inkscape:window-height="1016"
     inkscape:window-x="70"
     inkscape:window-y="27"
     inkscape:window-maximized="0"
     inkscape:current-layer="g6605" />
  <defs
     id="defs2" />
  <g
     inkscape:groupmode="layer"
     id="layer3"
     inkscape:label="book"
     style="display:inline"
     sodipodi:insensitive="true">
    <path
       style="fill:none;stroke:#7d3ea2;stroke-width:4.86458;stroke-linecap:butt;stroke-linejoin:miter;stroke-miterlimit:4;stroke-dasharray:none;stroke-opacity:1"
       d="M 4.1725823,32.651048 V 78.264637 L 42.767003,90.78658 h 13.7252 L 96.754605,77.651468 V 33.009296"
       id="path6866"
       sodipodi:nodetypes="cccccc" />
    <path
       style="fill:#55b0b1;fill-opacity:1;stroke:none;stroke-width:0.259243px;stroke-linecap:butt;stroke-linejoin:miter;stroke-opacity:1"
       d="M 49.385004,83.760589 C 38.054599,76.744248 26.848051,73.279206 13.067198,73.046308 L 12.922782,29.411065 C 26.316295,32.098789 37.773416,36.212338 49.385004,44.120431 62.364801,36.664075 75.092255,31.75273 88.611171,30.035498 l 0.04574,43.01081 C 75.550565,72.43535 62.885078,75.530078 49.385004,83.760589"
       id="path7101"
       sodipodi:nodetypes="ccccccc" />
    <path
       style="fill:#945cc1;fill-opacity:1;stroke:none;stroke-width:0.259243px;stroke-linecap:butt;stroke-linejoin:miter;stroke-opacity:1"
       d="M 49.385004,83.760589 C 38.054599,76.744248 26.848051,73.279206 13.067198,73.046308 L 12.922782,29.411065 C 26.316295,32.098789 37.773416,36.212338 49.385004,44.120431 62.364801,36.664075 75.092255,31.75273 88.611171,30.035498 l 0.04574,43.01081 C 75.550565,72.43535 62.885078,75.530078 49.385004,83.760589"
       id="path1496"
       sodipodi:nodetypes="ccccccc" />
    <path
       style="fill:#7d3ea2;fill-opacity:1;stroke:none;stroke-width:0.259243px;stroke-linecap:butt;stroke-linejoin:miter;stroke-opacity:1"
       d="M 49.385004,83.760589 V 44.120431 C 62.364801,36.664075 75.092255,31.75273 88.611171,30.035498 l 0.04574,43.01081 C 75.550565,72.43535 62.885078,75.530078 49.385004,83.760589"
       id="path1578"
       sodipodi:nodetypes="ccccc" />
  </g>
  <g
     inkscape:groupmode="layer"
     id="layer1"
     inkscape:label="thingsinbook"
     style="display:inline"
     sodipodi:insensitive="true">
    <path
       style="font-variation-settings:normal;opacity:1;vector-effect:none;fill:none;fill-opacity:1;stroke:#ffffff;stroke-width:2;stroke-linecap:butt;stroke-linejoin:miter;stroke-miterlimit:4;stroke-dasharray:none;stroke-dashoffset:0;stroke-opacity:1;-inkscape-stroke:none;stop-color:#000000;stop-opacity:1"
       d="M 67.668745,67.593476 V 45.561662"
       id="path3796" />
    <path
       style="font-variation-settings:normal;opacity:1;vector-effect:none;fill:none;fill-opacity:1;stroke:#ffffff;stroke-width:2;stroke-linecap:butt;stroke-linejoin:miter;stroke-miterlimit:4;stroke-dasharray:none;stroke-dashoffset:0;stroke-opacity:1;-inkscape-stroke:none;stop-color:#000000;stop-opacity:1"
       d="m 67.729065,56.761808 c -3.852973,1.176855 -6.948273,2.253002 -10.741451,4.406257 V 48.39304"
       id="path3798"
       sodipodi:nodetypes="ccc" />
    <circle
       style="display:inline;fill:none;fill-opacity:1;stroke:#ffffff;stroke-width:2;stroke-miterlimit:4;stroke-dasharray:none"
       id="path1933"
       cx="25.697443"
       cy="61.430061"
       r="6.5502462" />
    <circle
       style="display:inline;fill:none;fill-opacity:1;stroke:#ffffff;stroke-width:2;stroke-miterlimit:4;stroke-dasharray:none"
       id="circle2059"
       cx="78.349602"
       cy="53.748421"
       r="4.2014084" />
    <circle
       style="display:inline;fill:#ffffff;fill-opacity:1;stroke:none;stroke-width:1.55058;stroke-miterlimit:4;stroke-dasharray:none"
       id="circle2061"
       cx="57.806389"
       cy="70.631775"
       r="3.8111632" />
    <path
       style="font-variation-settings:normal;display:inline;opacity:1;vector-effect:none;fill:none;fill-opacity:1;stroke:#ffffff;stroke-width:2;stroke-linecap:butt;stroke-linejoin:miter;stroke-miterlimit:4;stroke-dasharray:none;stroke-dashoffset:0;stroke-opacity:1;-inkscape-stroke:none;stop-color:#000000;stop-opacity:1"
       d="m 31.975986,63.476756 c 4.478555,1.269871 8.164292,3.150286 12.320528,5.779983 l 0.325991,-16.855555"
       id="path2132"
       sodipodi:nodetypes="ccc" />
    <path
       style="display:inline;fill:none;stroke:#ffffff;stroke-width:2;stroke-linecap:butt;stroke-linejoin:miter;stroke-miterlimit:4;stroke-dasharray:none;stroke-opacity:1"
       d="m 59.435041,70.207962 c 7.14663,-2.761789 10.997679,-3.861103 19.162932,-4.47497 v -7.907715"
       id="path2186"
       sodipodi:nodetypes="ccc" />
  </g>
  <g
     inkscape:label="UglyGrey copy"
     inkscape:groupmode="layer"
     id="g6605"
     style="display:inline">
    <path
       id="path6603"
       style="fill:#ffffff;stroke:#4b4b4a;stroke-width:1.9481;stroke-linecap:butt;stroke-linejoin:miter;stroke-miterlimit:4;stroke-dasharray:none;stroke-opacity:1"
       d="m 49.679562,57.862426 c 4.272011,-0.420855 4.571598,-0.644926 8.631811,-2.03744 4.060212,-1.392514 11.007528,-6.544237 13.317053,-8.272967 2.309526,-1.728732 8.119028,-4.159568 8.119028,-4.159568 v -20.42464 c 0,0 -3.590379,-2.179505 -5.663542,-3.946794 C 72.010747,17.253728 66.743345,11.248474 63.021589,8.9565882 59.53244,6.8079465 54.901466,4.8067344 50.546455,4.8263673 h -1.829181 c -4.355009,-0.019633 -8.985985,1.9815792 -12.47513,4.1302209 -3.721756,2.2918858 -8.989162,8.2971398 -11.062325,10.0644288 -2.073162,1.767289 -5.663542,3.946794 -5.663542,3.946794 v 20.42464 c 0,0 5.809866,2.430836 8.119391,4.159568 2.309528,1.72873 9.256841,6.880453 13.317054,8.272967 4.060212,1.392514 4.359435,1.616585 8.631448,2.03744 z"
       sodipodi:nodetypes="cssccssccssccsscc" />
    <path
       style="opacity:1;fill:#4b4b4a;fill-opacity:1;stroke:none;stroke-width:2.73974;stroke-miterlimit:4;stroke-dasharray:none"
       id="path6597"
       sodipodi:type="arc"
       sodipodi:cx="50.081333"
       sodipodi:cy="44.020393"
       sodipodi:rx="4.1087146"
       sodipodi:ry="2.222332"
       sodipodi:start="0"
       sodipodi:end="3.145037"
       sodipodi:open="true"
       sodipodi:arc-type="arc"
       d="m 54.190048,44.020393 a 4.1087146,2.222332 0 0 1 -2.058444,1.925871 4.1087146,2.222332 0 0 1 -4.112793,-0.0038 4.1087146,2.222332 0 0 1 -2.046168,-1.929694" />
    <circle
       style="fill:#945cc1;fill-opacity:1;stroke-width:2.34891;stroke-miterlimit:4;stroke-dasharray:none"
       id="circle6593"
       cx="36.097458"
       cy="31.495817"
       r="5.1973724" />
    <circle
       style="fill:#945cc1;fill-opacity:1;stroke-width:2.34891;stroke-miterlimit:4;stroke-dasharray:none"
       id="circle6595"
       cx="63.166271"
       cy="31.495817"
       r="5.1973724" />
    <circle
       style="fill:#4b4b4a;fill-opacity:1;stroke-width:1.67396;stroke-miterlimit:4;stroke-dasharray:none"
       id="circle6679"
       cx="36.097458"
       cy="31.495817"
       r="3.7039006" />
    <circle
       style="fill:#4b4b4a;fill-opacity:1;stroke-width:1.67396;stroke-miterlimit:4;stroke-dasharray:none"
       id="circle6699"
       cx="63.166271"
       cy="31.495817"
       r="3.7039006" />
    <path
       id="path5151"
       style="fill:none;stroke:#b3b3b3;stroke-width:1.2;stop-color:#000000;stroke-miterlimit:4;stroke-dasharray:none"
       d="m 69.489417,14.60062 c -4.316812,0.226224 -4.754082,6.032148 -19.808248,5.7822 -15.409737,-0.255851 -15.520843,-5.682088 -19.84938,-5.736865"
       sodipodi:nodetypes="csc" />
    <circle
       style="fill:#4b4b4a;stroke:none;stroke-width:1.92243;stroke-miterlimit:4;stroke-dasharray:none;stop-color:#000000;font-variation-settings:normal;opacity:1;vector-effect:none;fill-opacity:1;stroke-linecap:butt;stroke-linejoin:miter;stroke-dashoffset:0;stroke-opacity:1;-inkscape-stroke:none;stop-opacity:1"
       id="path6219"
       cx="49.658249"
       cy="17.590757"
       r="1.3752748" />
    <path
       id="path6415"
       style="fill:none;stroke:#4b4b4a;stroke-width:1.9481;stroke-linecap:butt;stroke-linejoin:miter;stroke-miterlimit:4;stroke-dasharray:none;stroke-opacity:1"
       d="m 49.679562,57.862426 c 4.272011,-0.420855 4.571598,-0.644926 8.631811,-2.03744 4.060212,-1.392514 11.007528,-6.544237 13.317053,-8.272967 2.309526,-1.728732 8.119028,-4.159568 8.119028,-4.159568 v -20.42464 c 0,0 -3.590379,-2.179505 -5.663542,-3.946794 C 72.010747,17.253728 66.743345,11.248474 63.021589,8.9565882 59.53244,6.8079465 54.901466,4.8067344 50.546455,4.8263673 h -1.829181 c -4.355009,-0.019633 -8.985985,1.9815792 -12.47513,4.1302209 -3.721756,2.2918858 -8.989162,8.2971398 -11.062325,10.0644288 -2.073162,1.767289 -5.663542,3.946794 -5.663542,3.946794 v 20.42464 c 0,0 5.809866,2.430836 8.119391,4.159568 2.309528,1.72873 9.256841,6.880453 13.317054,8.272967 4.060212,1.392514 4.359435,1.616585 8.631448,2.03744 z"
       sodipodi:nodetypes="cssccssccssccsscc" />
  </g>
</svg>
